<?xml version="1.0" standalone="no"?>
<!DOCTYPE svg PUBLIC "-//W3C//DTD SVG 20010904//EN"
 "http://www.w3.org/TR/2001/REC-SVG-20010904/DTD/svg10.dtd">
<svg version="1.0" xmlns="http://www.w3.org/2000/svg"
 width="1024.000000pt" height="1024.000000pt" viewBox="0 0 1024.000000 1024.000000"
 preserveAspectRatio="xMidYMid meet">

<g transform="translate(0.000000,1024.000000) scale(0.100000,-0.100000)"
fill="#000000" stroke="none">
<path d="M4795 8809 c-267 -26 -537 -80 -779 -154 -369 -112 -797 -330 -1088
-552 l-57 -44 -41 21 c-93 48 -222 128 -320 200 -304 222 -344 245 -395 222
-44 -20 -58 -65 -52 -166 3 -50 1 -176 -5 -281 -12 -216 -3 -374 38 -616 l24
-146 -61 -89 c-339 -495 -541 -1043 -621 -1684 -17 -140 -17 -660 0 -800 94
-758 367 -1404 827 -1955 414 -496 906 -855 1495 -1088 869 -345 1850 -343
2734 5 878 346 1624 1064 2012 1939 223 502 326 1033 311 1599 -11 386 -72
742 -188 1082 l-31 91 31 186 c53 323 87 699 77 851 -20 278 -87 491 -184 577
-80 73 -220 91 -422 54 -142 -25 -574 -91 -598 -91 -10 0 -63 35 -118 78 -530
412 -1116 653 -1819 748 -131 18 -637 27 -770 13z m635 -219 c463 -42 936
-185 1340 -403 145 -78 415 -256 404 -266 -5 -4 -76 -18 -159 -30 -288 -43
-449 -97 -602 -203 -110 -75 -191 -160 -248 -257 -58 -100 -91 -141 -113 -141
-10 0 -44 14 -76 30 -32 17 -71 30 -86 30 -15 0 -95 16 -176 36 -170 41 -400
74 -513 74 -89 0 -154 -10 -346 -49 -77 -16 -210 -43 -296 -60 -185 -37 -282
-67 -404 -129 -84 -42 -169 -72 -206 -72 -14 0 -16 8 -12 44 12 102 -46 171
-217 260 -133 69 -198 113 -363 243 -68 54 -163 128 -211 165 l-86 67 63 45
c95 68 319 201 437 261 369 186 824 316 1230 354 137 12 506 13 640 1z m-2863
-471 c56 -38 157 -96 225 -129 129 -63 220 -128 389 -278 52 -46 146 -117 209
-159 80 -53 146 -107 215 -177 159 -161 193 -226 181 -344 -10 -97 -46 -179
-149 -335 -72 -110 -111 -158 -163 -203 -80 -68 -153 -142 -241 -241 -60 -68
-129 -114 -170 -113 -13 1 -9 8 17 28 87 68 118 125 140 264 16 97 8 294 -15
402 -37 175 -142 439 -290 731 -126 250 -220 372 -423 557 -29 26 -52 54 -52
63 0 19 -4 21 127 -66z m-277 -219 c42 -41 134 -129 205 -195 71 -66 169 -171
218 -232 49 -62 94 -113 100 -113 5 0 8 -3 4 -6 -6 -7 -124 21 -177 42 -58 23
-191 54 -229 54 -31 -1 -34 -2 -20 -13 9 -7 49 -23 89 -36 57 -19 85 -36 139
-85 37 -33 108 -96 159 -139 79 -66 170 -173 158 -185 -3 -2 -15 2 -27 9 -63
33 -278 61 -345 45 -27 -7 -24 -9 46 -40 349 -153 461 -271 463 -486 1 -103
-22 -163 -79 -206 -33 -26 -45 -29 -108 -29 -103 0 -171 39 -307 175 -168 167
-245 314 -313 593 -44 179 -63 289 -76 447 -6 69 -18 169 -25 222 -15 101 -20
273 -9 303 6 14 11 11 32 -16 14 -19 60 -68 102 -109z m6087 60 c106 -36 147
-98 147 -220 0 -62 -43 -231 -65 -254 -5 -6 -9 20 -9 62 0 94 -29 171 -84 227
-100 100 -231 100 -558 1 -120 -36 -247 -58 -443 -76 -223 -21 -375 -54 -475
-105 -213 -108 -417 -445 -437 -722 -6 -88 8 -187 34 -238 l16 -30 24 65 c14
36 35 111 49 167 71 301 201 481 390 542 64 20 305 73 310 68 1 -1 -36 -35
-82 -75 -46 -40 -113 -108 -150 -152 -36 -44 -80 -91 -97 -105 -30 -24 -27
-24 68 11 202 73 409 144 412 140 7 -7 -106 -103 -213 -180 -313 -226 -411
-318 -478 -445 -39 -74 -69 -161 -56 -161 4 0 27 15 51 33 125 96 373 252 572
361 38 21 84 51 103 68 40 35 41 32 13 -25 -41 -80 -84 -132 -224 -277 -78
-80 -156 -167 -174 -193 -32 -47 -111 -206 -111 -223 0 -4 17 8 38 28 90 87
298 197 477 253 131 41 169 57 202 88 38 34 34 14 -6 -28 -47 -50 -113 -104
-220 -180 -79 -57 -181 -156 -181 -176 0 -17 38 -9 104 22 66 31 69 31 194 27
138 -5 173 -15 211 -64 25 -32 29 -120 6 -163 -39 -77 -163 -155 -339 -213
l-97 -32 63 -18 c122 -34 250 -22 445 43 204 67 268 140 413 468 21 47 57 129
80 181 51 115 93 224 131 345 l29 90 -5 -59 c-3 -33 -19 -112 -34 -175 -16
-64 -39 -170 -52 -236 -36 -195 -123 -486 -180 -603 -41 -84 -65 -119 -129
-186 -125 -130 -302 -247 -447 -295 -101 -34 -172 -29 -327 23 -161 54 -217
62 -335 46 -86 -12 -91 -14 -85 -34 9 -33 59 -120 144 -251 109 -170 127 -202
161 -295 79 -217 77 -513 -6 -764 -42 -130 -185 -427 -258 -538 -90 -135 -186
-213 -280 -226 l-40 -5 6 124 c4 99 13 157 45 284 22 88 45 185 51 215 27 139
62 602 43 570 -5 -8 -17 -55 -26 -105 -102 -534 -287 -879 -554 -1033 -169
-99 -484 -192 -777 -231 -83 -11 -205 -31 -270 -45 -66 -13 -140 -28 -165 -34
l-45 -9 45 -20 c121 -54 345 -78 591 -63 164 10 181 13 431 74 157 38 224 51
366 70 28 4 28 -1 -6 -55 -87 -137 -270 -228 -562 -278 -121 -21 -408 -59
-650 -87 -80 -9 -176 -20 -215 -25 -97 -11 -348 -11 -480 1 -261 24 -417 99
-587 279 -102 108 -148 192 -148 269 0 28 4 61 9 75 21 54 101 104 198 122 21
3 113 29 204 56 91 27 174 49 184 49 12 0 15 3 9 9 -5 5 -79 21 -164 37 -137
24 -184 27 -405 30 -250 2 -315 10 -448 49 -124 37 -289 153 -352 248 -19 29
-46 86 -61 127 -14 41 -35 93 -46 115 -25 48 -113 173 -142 199 -20 18 -20 19
-1 12 50 -18 177 -26 262 -16 263 31 307 32 683 26 442 -7 411 -12 624 86 72
33 205 91 295 129 90 38 192 84 226 104 70 39 171 120 252 202 28 29 54 53 57
53 19 0 40 -75 44 -163 4 -83 7 -95 19 -85 22 18 52 82 64 137 32 153 -87 350
-233 385 l-28 6 31 -44 c19 -27 33 -61 36 -88 4 -37 1 -49 -22 -77 -15 -17
-52 -48 -81 -66 -30 -19 -92 -72 -138 -118 -76 -77 -95 -90 -222 -151 -322
-157 -387 -175 -674 -188 -258 -12 -298 -8 -540 52 -85 21 -172 41 -194 45
l-38 6 33 20 c106 61 160 68 327 45 115 -16 273 -21 285 -9 4 4 -5 12 -20 18
-60 25 -133 179 -133 279 0 30 10 103 21 162 52 264 -18 469 -276 817 -69 93
-123 172 -120 177 3 5 56 43 118 84 126 85 187 140 249 224 72 97 212 272 218
272 10 0 -8 -132 -24 -179 -9 -24 -29 -68 -45 -98 -28 -51 -28 -70 0 -37 7 9
58 48 114 87 144 103 195 157 250 266 25 51 72 125 104 164 32 40 66 86 74
102 l16 30 1 -55 c0 -30 -7 -100 -15 -154 -14 -96 -14 -133 0 -84 4 13 30 61
58 108 28 47 66 112 83 144 l32 59 40 -79 c65 -127 62 -126 106 -57 88 134
150 213 189 241 47 33 248 145 253 140 1 -2 7 -65 12 -141 5 -76 12 -141 16
-144 13 -13 233 119 321 191 67 54 92 67 133 68 73 1 155 -57 244 -172 l27
-35 1 103 c0 81 3 102 14 102 26 0 161 -98 179 -130 10 -17 31 -68 46 -112
l27 -82 56 71 c81 101 143 200 193 308 100 215 201 324 356 385 29 12 209 52
399 90 312 62 479 100 760 176 144 38 243 52 381 53 101 1 137 -3 186 -19z
m-6168 -1260 c9 -251 18 -290 87 -383 42 -57 137 -121 214 -144 l55 -17 -36
-8 c-52 -13 -127 -74 -184 -150 -27 -37 -92 -149 -143 -250 -124 -245 -145
-322 -146 -543 -1 -129 3 -172 17 -220 29 -93 76 -173 142 -239 66 -67 138
-109 260 -153 l80 -28 -115 -5 -115 -5 2 -33 c2 -44 49 -119 150 -237 108
-125 164 -209 254 -380 62 -119 85 -151 149 -215 91 -91 183 -142 317 -176
182 -46 188 -61 87 -204 -37 -51 -73 -113 -80 -137 -24 -81 10 -170 123 -321
135 -181 288 -298 558 -428 203 -97 272 -122 915 -329 313 -100 532 -194 703
-300 80 -50 87 -53 87 -27 0 72 212 268 650 602 47 36 171 134 275 218 484
391 666 571 836 827 74 111 180 323 214 429 107 335 86 657 -62 926 -52 95
-97 154 -192 253 l-85 87 36 0 c116 0 602 148 700 214 66 44 171 151 275 281
108 135 135 176 196 301 l52 107 12 -43 c23 -78 61 -282 80 -420 14 -105 18
-202 18 -435 0 -304 -5 -369 -46 -605 -207 -1180 -1027 -2182 -2154 -2630
-442 -175 -853 -248 -1350 -237 -259 5 -398 19 -610 62 -984 198 -1835 813
-2339 1689 -195 339 -336 726 -406 1116 -67 379 -67 839 0 1220 72 404 221
806 427 1153 l67 112 8 -35 c5 -19 12 -136 17 -260z m711 -669 c69 -29 142
-64 163 -78 49 -34 198 -190 261 -273 56 -74 132 -227 172 -345 60 -178 19
-385 -95 -488 -50 -45 -207 -122 -291 -143 -155 -39 -287 25 -329 161 l-18 57
-31 -55 c-68 -120 -138 -170 -239 -169 -115 1 -245 73 -312 172 -63 95 -66
112 -66 335 0 198 0 201 31 287 41 114 98 212 211 362 147 196 207 238 338
232 69 -3 96 -10 205 -55z m4165 -808 c27 -35 27 -37 4 -18 -48 39 -89 79 -89
88 0 15 56 -31 85 -70z"/>
<path d="M5517 6338 c31 -19 196 -177 210 -202 15 -28 -1 -60 -28 -53 -10 3
-19 4 -19 3 0 -2 19 -23 41 -47 183 -195 104 -473 -134 -471 -87 0 -187 52
-282 147 -95 95 -118 150 -118 285 -1 106 24 235 55 290 l20 35 -26 -30 c-14
-16 -42 -60 -61 -96 -109 -208 -79 -430 77 -560 24 -20 106 -73 183 -119 208
-124 282 -175 366 -256 85 -79 120 -94 167 -70 89 46 120 351 59 568 -49 173
-120 293 -246 418 -64 64 -105 95 -161 122 -78 38 -148 63 -103 36z"/>
<path d="M5312 6086 c-35 -95 -42 -134 -18 -104 15 20 60 39 78 34 7 -3 26 -7
42 -11 l30 -6 -40 -22 c-30 -17 -42 -32 -53 -65 -12 -38 -11 -48 4 -88 37 -96
144 -167 203 -133 25 14 41 49 63 139 10 40 12 43 24 26 17 -23 29 -106 21
-148 l-7 -33 21 37 c72 133 6 245 -206 349 -79 40 -104 57 -116 81 l-14 31
-32 -87z"/>
<path d="M2986 5487 c-43 -65 -58 -184 -33 -255 34 -92 159 -152 224 -107 28
20 47 78 40 123 -9 51 -42 80 -119 103 -82 24 -102 47 -96 114 2 25 2 45 1 45
-1 0 -9 -10 -17 -23z"/>
<path d="M2476 5457 c-10 -54 -40 -84 -102 -104 -71 -22 -104 -59 -104 -117 0
-48 21 -83 57 -97 35 -13 99 8 128 43 49 58 71 207 41 278 l-13 33 -7 -36z"/>
</g>
</svg>
